<svg width="103" height="23" viewBox="0 0 143 33" fill="none" xmlns="http://www.w3.org/2000/svg">
<line x1="4.37114e-08" y1="16.5" x2="143" y2="16.5" stroke="black"/>
<path d="M23.625 24.75V8.25H26.375V24.75H23.625ZM29.125 30.25V2.75H31.875V30.25H29.125ZM18.125 19.25V13.75H20.875V19.25H18.125ZM34.625 24.75V8.25H37.375V24.75H34.625ZM40.125 19.25V13.75H42.875V19.25H40.125Z" fill="black"/>
<path d="M49.7083 22.2498V10.7498H51.625V22.2498H49.7083ZM53.5417 26.0832V6.9165H55.4583V26.0832H53.5417ZM45.875 18.4165V14.5832H47.7917V18.4165H45.875ZM57.375 22.2498V10.7498H59.2917V22.2498H57.375ZM61.2083 18.4165V14.5832H63.125V18.4165H61.2083Z" fill="black"/>
</svg>
